<svg xmlns:rdf="http://www.w3.org/1999/02/22-rdf-syntax-ns#" xmlns="http://www.w3.org/2000/svg" height="17.858mm" width="96.157mm" version="1.1" viewBox="0 0 340.71493 63.276046">
<g transform="translate(-1.7856 -1.0716)" stroke="#000" stroke-width=".25" fill="#b24315">
<path d="m37.713 1.3708c-0.075-0.1265-0.75-0.2361-1.062-0.1298-7.227 2.46-17.664 2.5891-20.971 2.7426-1.06-0.1349-1.718-0.3251-1.939 0.4879-0.95164 3.4987 0.20793 6.9768 3.379 6.8466 1.4645-0.0601 3.3757-0.84609 3.3026 1.515l-12.352 41.172-4.2852 3.9277c-3.2776 1.8522-2.0948 3.4586 2.2261 6.2606 3.2872 0.1391 7.3401-0.27666 9.9249-0.088 6.5951-4.1847 0.69922-5.1036-0.42446-7.573l2.9492-6.8086c7.2496 2.4396 12.005 1.5516 16.715 0.60547l1.2461 3.1895 1.4941 3.2695c-1.7826 1.9875-6.682 4.5246 1.5781 7.2207l21.264 0.17969c11.265-4.4604 0.53479-5.989-0.90235-8.7559-7.977-17.976-14.167-48.898-22.144-54.062zm-11.47 27.841 4.6447 10.635c0.51692 0.98637 0.72818 1.8317-0.91666 1.8203l-7.6311 0.20139c-2.593-0.97843-1.9843-2.4905-1.6484-3.957l2.2285-7.8359c1.1052-2.9731 2.0528-1.5196 3.323-0.86353z"/>
<path d="m85.157 1.2238-14.682 0.13672c-1.1532 0.0734-2.1612-0.094-3.0508 0.33172-2.3107 1.1058-5.4326 4.5675-0.32138 6.9757 1.0298 0.48518 2.1769 0.0734 2.3657 1.4861l1.2935 46.376c-2.5204 1.4608-7.3197 2.4135-0.25195 7.0703 5.4727-0.92468 10.945-0.57832 16.418 0.16992 1.489-0.24267 3.0448-0.18649 4.2129-1.873 0.66638-0.65841 1.8138 0.14761 2.4727 0.65625 2.2723 1.5364 5.6466 1.712 7.9785 1.5293 6.7246 0.53189 11.796-3.3923 16.346-8.7148 2.6719-3.9158 5.6772-7.1886 3.9473-19.582-1.6737-6.6922-4.8735-13.068-14.555-18.092-4.709-1.8396-9.5112-3.3172-15.379-0.6875-1.0885 0.15716-2.2011 0.38198-2.6348-1.2617l0.0371-8.9883c-0.10358-2.8161-1.4007-4.7369-4.1973-5.5332zm7.9961 23.086c5.7513 0.63187 6.4014 5.987 7.8008 10.648 0.63782 5.504-0.43048 10.627-1.2422 15.809-0.48962 2.5738-1.5011 4.5399-4 4.7695-2.6416-0.13671-1.6496 0.16911-5.4434-2.5586 0.60022-8.3522 0.52423-16.704-1.002-25.057 0.86138-3.2652 2.3666-3.4754 3.8867-3.6113z"/>
<path d="m130.65 31.096c-0.45334-1.5278-1.5179-1.5886-2.5488-1.7304-5.929-3.2724-5.19-7.5729-1.141-8.8144l2.2678-0.45506c0.93967-0.14295 1.4448-1.0247 1.3402-1.6317 2.0607-8.7475 10.179-12.486 18.281-16.238 6.8877-2.0098 10.846-0.34248 12.139 4.6712-0.21233 3.2296-0.72472 6.2567-5.6123 6.3305l-4.8373-2.7573c-3.4463-1.3605-2.7927 1.0962-2.9693 2.78l0.0413 5.8861c0.10154 1.9176 1.1421 2.1402 2.3742 2.0151 1.7003-0.40044 3.3176-0.45506 4.3136 2.0791l-0.18992 4.4802c-0.33347 2.0368-1.2999 2.1746-2.3367 2.1014l-2.4933-0.38154c-1.8394 0.0424-1.4131 0.65123-1.4491 1.1445 1.4971 8.819 0.91203 17.083 0.71166 25.449 0.0802 0.93102 0.71378 1.3086 1.6251 1.4084 4.6914 2.5063 6.0865 4.738 0.80482 6.4132l-20.373 0.33505c-4.7767-0.57233-4.8183-3.6928-4.451-4.918 0.28593-0.95367 0.11782-1.3143 2.5911-1.7701 1.0855 0.3139 2.4958-0.10134 2.3779-0.71102-0.0279-8.4348 0.22271-16.591-0.46569-25.686z"/>
<path d="m319.68 30.701c0.74849-1.6593-0.83657-1.3183-1.603-1.6791-1.9514-0.76981-3.5916-1.8119-3.6585-4.2305-0.51872-1.6815 1.3246-2.5756 4.3685-3.0696 3.3963-0.87008 6.7485-1.5388 12.232-11.917 1.0916-3.4331 1.4145-7.3675 7.7656-7.3705 3.432 1.6037 4.1101 3.5134 3.2646 5.5924 0.36589 2.0795-0.38783 3.9101-2.1647 5.5134l-2.2574 2.4565-1.47 3.2484c0.28272 0.92963-0.24353 2.1289 2.0248 2.3967 3.0128 0.47196 3.6132 1.8718 3.5548 3.525 0.40213 2.6637-0.87802 4.0056-3.8092 4.0502-1.8904-0.49748-1.955 0.42509-1.7295 1.5733 0.49298 9.7699 0.0821 17.506-0.35715 25.179 0.71768 1.5996 6.0426 2.6252 4.9979 5.2218-0.5249 2.981-3.7911 2.253-6.6606 2.0616-4.6694-0.52747-9.8539-0.53979-15.234-0.35638-2.922 0.66023-4.0322-0.49136-4.5893-2.1961-1.3753-2.6695 3.0171-2.9804 4.5218-4.8203 0.2267-8.2773-0.72942-16.257 0.80357-25.179z"/>
<path d="m278.98 30.392c0.0172-1.1952-0.37618-1.7061-1.0729-1.7115-1.8953-0.69401-4.7002-0.19859-3.688-4.6948 0.25369-3.0555 2.684-3.753 5.7755-3.7342 3.7577 1.1483 7.5154 0.95259 11.273 0.20392 2.6834 0.0777 3.8311 0.86655 4.9558 1.666 1.0308 0.17973 1.4208-0.28125 2.0141-0.5391 3.5419-1.959 6.317-6.9076 13.657 1.1939 3.2035 6.0909 1.1673 11.625-5.0838 13.531-3.44 0.47798-6.5826-0.23375-8.8391-4.4898-3.8639-2.6386-2.0704 0.38034-2.9552 0.72084 1.0861 7.4064 0.52776 14.539 0.25254 21.718-0.36142 1.576 0.41005 2.2249 1.5751 2.5517 1.4776-0.42195 2.6076 0.26804 2.8995 3.6403-1.5626 3.7042-3.5556 3.0283-7.4289 3.0339-4.505-0.90026-9.01-0.73201-13.515 0.0312-5.679-0.62677-9.5219-4.6308-2.2807-6.641 1.1057-0.30693 1.3318-1.1724 1.3988-1.2948-1.6297-8.3304 0.73601-16.638 1.0625-25.186z"/>
<path d="m183.74 17.251c-4.9822-0.0557-9.6511 0.72431-14.129 2.0137-3.0069 2.0467-4.5411 4.6655-4.5176 7.8906 1.7417 3.7272 4.2297 5.788 8.7988 3.2051 2.1695-2.6899 3.8389-7.0784 6.7617-7.207 4.4717 0.0987 9.2278-0.36884 10.607 5.9141 0.40879 3.5263-1.6051 3.5713-3.8457 3.2891-4.909-1.3328-8.9512-0.71418-13.234-0.63868-5.5508 1.0218-10.063 2.9172-12.424 6.625-3.9099 5.6157-3.2537 10.79-2.0195 15.908 3.2472 5.8724 6.2198 8.6094 13.307 9.5391 10.217-0.41598 17.859-3.5412 30.936-0.94727 2.8206 1.1639 5.4563 0.87164 8.1367 0.93164 4.4849-2.3396 2.4206-4.2333-0.3789-6.0762-1.1057-0.53169-1.3527-1.3649-1.3828-2.2754-0.77626-2.62 0.50078-5.9116 1.1387-8.9941 0.3016-3.1054 0.18013-9.9122-1.1934-15.205-1.5922-3.9795-4.9318-7.3777-9.5527-10.348-4.9638-2.6192-10.698-3.6983-17.008-3.625zm1.1736 20.969c2.2478 0.0724 4.4613 0.38408 6.3774 2.7779 3.2538 7.2949 0.77228 10.658 0 12.123-1.8426 2.0574-4.7587 1.1625-7.1982 1.5784-3.9772-1.0807-3.9498-5.4695-4.1735-9.6509 0.15113-2.8817 1.4829-5.2911 4.9942-6.8286z"/>
<path d="m219.25 9.6209c-2.6438-1.4627-3.2021-2.764-3.3078-4.252-0.15578-2.1945 2.4334-3.587 5.7214-3.2674 3.958 0.49075 7.8186 1.152 12.423 0.51148 5.2831-0.43188 5.2041 2.1524 5.2402 4.672-0.0316 3.6227 0.0853 7.5318-0.0889 11.554-0.0695 1.605 2.6504 2.3084 2.8822 1.5778 0.42895-1.352 11.806-5.2324 19.4 1.9998 1.5931-0.10906 7.2099 12.783 6.3187 19.077-1.2727 3.0041 0.0871 13.063-0.47692 13.675-0.34036 0.36934 1.0188 1.3687 1.3182 1.497 2.7838 1.1926 0.98057 7.7115-2.9272 6.492-2.4853-0.77558-11.311-1.6053-13.796 0.0166-2.7189 1.7744-7.5824-3.433-2.8525-6.3892 1.3349-0.83429 1.5521-1.4241 1.3456-2.4073-0.83171-3.9594-0.67538-15.05-0.84461-16.442-0.13922-1.1451-1.1036-9.4402-5.2808-9.073-2.9224 0.25686-5.2507 2.0621-5.1041 3.7406 0.68033 7.7904 0.16546 15.416 0.48526 21.655-0.21837 2.2614 0.15132 2.4645 0.59679 2.4024 2.7534 0.0104 3.0784 1.5546 2.6541 3.5719-0.33748 2.7582-2.0563 3.3926-4.3176 3.1931-5.5087-1.1462-11.194-0.52337-16.866-0.0412-2.2803 0.0311-6.5517-3.8108-1.7408-6.114 0.81865-0.39192 1.1864-1.0313 1.1117-1.5603-0.67131-16.444-0.73799-28.594-0.44194-44.068 0.0267-1.3544-0.46869-2.0127-1.4521-2.0203z"/>
</g>
</svg>
